{"title":"Stage 10 - Tour de France 2012","uid":7434325,"size":1325687976,"categoryP":"video","categoryS":"other","magnet":"?xt=urn:btih:284602bd47279b79c1db68299d580313bcb85785&amp;dn=Stage+10+-+Tour+de+France+2012+&amp;tr=udp%3A%2F%2Ftracker.openbittorrent.com%3A80&amp;tr=udp%3A%2F%2Fopen.demonii.com%3A1337&amp;tr=udp%3A%2F%2Ftracker.coppersurfer.tk%3A6969&amp;tr=udp%3A%2F%2Fexodus.desync.com%3A6969","seeders":0,"leechers":0,"uploader":"Rush","files":-1,"time":1342029655,"description":"Last 58km.\nCommentary in spanish.\n\nDuration: 01:50:07.00, start: 0.000000, bitrate: 1605 kb/s\n    Stream #0.0(und): Video: h264 (Main), yuv420p, 1280x720 [PAR 1:1 DAR 16:9], 1502 kb/s, 25 fps, 25 tbr, 25 tbn, 50 tbc\n    Stream #0.1(und): Audio: mp3, 44100 Hz, stereo, s16, 95 kb/s\n","torrent":{"xt":"urn:btih:284602bd47279b79c1db68299d580313bcb85785","amp;dn":"Stage+10+-+Tour+de+France+2012+","amp;tr":["udp%3A%2F%2Ftracker.openbittorrent.com%3A80","udp%3A%2F%2Fopen.demonii.com%3A1337","udp%3A%2F%2Ftracker.coppersurfer.tk%3A6969","udp%3A%2F%2Fexodus.desync.com%3A6969"],"infoHash":"284602bd47279b79c1db68299d580313bcb85785","infoHashBuffer":{"type":"Buffer","data":[40,70,2,189,71,39,155,121,193,219,104,41,157,88,3,19,188,184,87,133]},"announce":[],"urlList":[]}}